<?xml version="1.0" encoding="iso-8859-1"?>
<!-- Generator: Adobe Illustrator 18.1.1, SVG Export Plug-In . SVG Version: 6.00 Build 0)  -->
<svg version="1.1" id="Capa_1" xmlns="http://www.w3.org/2000/svg" xmlns:xlink="http://www.w3.org/1999/xlink" x="0px" y="0px"
	 viewBox="0 0 41.374 41.374" style="enable-background:new 0 0 41.374 41.374;" xml:space="preserve">
<g>
	<g>
		<g>
			<path style="fill:#010002;" d="M31.883,0.642C31.895,0.424,31.909,0.204,31.909,0H9.46c0,0.204,0.014,0.424,0.026,0.642H2.017
				c0,0,2.822,13.85,13.118,13.85c0.052,0,0.108-0.005,0.163-0.006c0.588,0.651,1.206,1.229,1.854,1.688
				c-0.456,0.009-0.823,0.374-0.823,0.829c0,0.461,0.375,0.835,0.834,0.835h1.101L15.748,28.43h-1.87v10.027h14.205V28.43h-1.875
				L23.69,17.838h1.104c0.459,0,0.834-0.374,0.834-0.835c0-0.459-0.375-0.834-0.834-0.834h-0.568
				c0.645-0.458,1.26-1.034,1.848-1.683c0.053,0.001,0.109,0.006,0.161,0.006c10.298,0,13.122-13.85,13.122-13.85L31.883,0.642
				L31.883,0.642z M3.97,2.13h5.678c0.522,3.343,2.13,7.607,4.389,10.788C7.932,12.177,5.027,5.426,3.97,2.13z M26.074,29.805v6.975
				H15.725v-6.975H26.074z M27.333,12.918c2.259-3.18,3.865-7.444,4.388-10.788h5.681C36.342,5.428,33.435,12.178,27.333,12.918z"/>
			<rect x="11.317" y="38.92" style="fill:#010002;" width="18.739" height="2.454"/>
		</g>
	</g>
</g>
<g>
</g>
<g>
</g>
<g>
</g>
<g>
</g>
<g>
</g>
<g>
</g>
<g>
</g>
<g>
</g>
<g>
</g>
<g>
</g>
<g>
</g>
<g>
</g>
<g>
</g>
<g>
</g>
<g>
</g>
</svg>
